<?xml version="1.0" encoding="utf-8"?>
<!-- Generator: Adobe Illustrator 24.1.1, SVG Export Plug-In . SVG Version: 6.00 Build 0)  -->
<svg version="1.1" id="Layer_1" xmlns="http://www.w3.org/2000/svg" xmlns:xlink="http://www.w3.org/1999/xlink" x="0px" y="0px"
	 viewBox="0 0 512 512" style="enable-background:new 0 0 512 512;" xml:space="preserve">
<g>
	<path d="M508.4,420.9H388.9c-2,0-3.6,1.3-3.6,3.7v32.3c0,2,1.3,3.6,3.7,3.6h119.3c2.1,0,3.7-0.9,3.7-3.5v-32.3
		c0-2.2-1.3-3.5-3.7-3.5v-0.3L508.4,420.9z M351.3,52.6l1,2.6V456l-0.8,2.4l-2.8,1.3H3.3l-2.1-0.5L0,456.4V54.7
		c0-1.7,0.8-2.8,2.1-3.3h346.5l2.4,0.8v0.3H351.3z M38.7,417.6c0,1.6,0.8,2.9,2.1,3.3h269.8c1.2-0.3,2-1.6,2-3.3V93.9
		c0-1.5-0.8-2.8-2.1-3.2H40.8c-1.2,0.4-2,1.6-2,3.2L38.7,417.6z M149.2,238.9c13.8,0,21.7,3.8,29.7,13.3c1.2,1.6,3.2,2,4.9,0.8
		l22.1-19.7c1.6-0.9,1.2-3.5,0.4-4.8c-13.6-16.3-33.2-26.5-58.4-26.5c-33.9,0-59.6,16.9-69.5,47c-3.5,10.6-5.1,24.1-5.1,42.3
		c0,18.3,1.6,31.7,5.4,42.3c9.9,30.4,35.5,47,69.4,47c25.7,0,45.2-10.3,58.6-25.9c1-1.6,1.3-3.5-0.3-4.8l-22.1-19.5
		c-1.6-1-3.5-1-4.8,0.6c-8.3,9.6-16.9,14.7-31,14.7c-15,0-26.5-7.3-31.3-22.1c-2.9-8.3-3.6-18.5-3.6-31.6c0-13.2,1-22.8,3.9-31.4
		C122.6,246.4,133.8,238.9,149.2,238.9L149.2,238.9z"/>
</g>
</svg>
