<?xml version="1.0" encoding="utf-8"?>
<!-- Generator: Adobe Illustrator 25.0.1, SVG Export Plug-In . SVG Version: 6.00 Build 0)  -->
<svg version="1.1" id="Layer_1" xmlns="http://www.w3.org/2000/svg" xmlns:xlink="http://www.w3.org/1999/xlink" x="0px" y="0px"
	 viewBox="0 0 246.61 246.61" style="enable-background:new 0 0 246.61 246.61;" xml:space="preserve">
<style type="text/css">
	.st0{fill-rule:evenodd;clip-rule:evenodd;fill:#009FE3;}
	.st1{fill:#FFFFFF;}
</style>
<path class="st0" d="M126.94,225.14c0,0-79.48-38.99-79.48-111.78c0-49.13,0-80.84,0-80.84h159.26c0,0,0,31.71,0,80.84
	C206.72,186.15,126.94,225.14,126.94,225.14z"/>
<polygon class="st1" points="169.48,93.34 162.85,93.34 162.85,143.19 148.5,143.19 148.5,93.34 141.89,93.34 141.89,83.35 
	169.48,83.35 "/>
<polygon class="st1" points="105.42,143.16 91.07,143.16 91.09,83.35 105.4,83.35 "/>
<path class="st1" d="M141.28,49.45c-11.87,0-21.49,6.15-21.49,18.02l0,91.62c0,10.05,0,15.04-7.14,15.04
	c-6.64,0-7.22-4.96-7.22-12.29h0c0-3.96-3.21-7.16-7.17-7.16c-3.95,0-7.16,3.21-7.16,7.16h-0.01c0,10.09,9.71,15.28,21.57,15.28
	c11.87,0,21.49-6.15,21.49-18.02l0.01-91.62c0-10.05,0-15.04,7.14-15.04c6.64,0,7.22,4.97,7.22,12.29h0.01
	c0,3.96,3.21,7.16,7.16,7.16c3.96,0,7.17-3.2,7.17-7.16h0.01C162.85,54.64,153.14,49.45,141.28,49.45z"/>
</svg>
